<svg xmlns:xlink="http://www.w3.org/1999/xlink" version="1.1" class="highcharts-root" style="font-family: &quot;Lucida Grande&quot;, &quot;Lucida Sans Unicode&quot;, Arial, Helvetica, sans-serif; font-size: 12px;" xmlns="http://www.w3.org/2000/svg" width="600" height="600" viewBox="0 0 600 600" aria-label="Interactive chart" aria-hidden="false"><desc aria-hidden="true">Created with Highcharts 10.0.0</desc><defs aria-hidden="true"><clipPath id="highcharts-kmparhn-1081-"><rect x="0" y="0" width="600" height="468" fill="none"></rect></clipPath><clipPath id="highcharts-kmparhn-1082-"><rect x="0" y="0" width="600" height="468" fill="none"></rect></clipPath><clipPath id="highcharts-kmparhn-1083-"><rect x="0" y="60" width="600" height="468" fill="none"></rect></clipPath></defs><rect fill="#ffffff" class="highcharts-background" x="0" y="0" width="600" height="600" rx="0" ry="0" aria-hidden="true"></rect><rect fill="none" class="highcharts-plot-background" x="0" y="60" width="600" height="468" aria-hidden="true"></rect><g class="highcharts-pane-group" data-z-index="0" aria-hidden="true"></g><rect fill="none" class="highcharts-plot-border" data-z-index="1" x="0" y="60" width="600" height="468" aria-hidden="true"></rect><g class="highcharts-series-group" data-z-index="3" aria-hidden="false"><g class="highcharts-series highcharts-series-0 highcharts-map-series highcharts-color-0" data-z-index="0.1" opacity="1" transform="translate(0,60) scale(1 1)" clip-path="url(#highcharts-kmparhn-1082-)" aria-hidden="false"><g transform="translate(186.7291287931758,454.0811075374073) scale(0.04195217452104601 -0.04195217452104601)" stroke-width="23.836666666666666" aria-hidden="false" aria-label=""><path fill="#FFE747" d="M 4470 3711 L 4535 3635 L 4611 3576 L 4769 3552 L 4754 3465 L 4759 3323 L 4899 3116 L 4989 3101 L 5066 3042 L 5066 3042 L 4995 2937 L 4926 2856 L 4893 2717 L 4852 2623 L 4859 2583 L 4772 2515 L 4764 2472 L 4717 2396 L 4670 2354 L 4605 2354 L 4536 2430 L 4469 2457 L 4409 2435 L 4368 2448 L 4287 2428 L 4254 2340 L 4219 2304 L 4136 2288 L 4081 2323 L 4058 2308 L 3985 2362 L 3939 2346 L 3735 2363 L 3649 2352 L 3577 2300 L 3462 2318 L 3419 2349 L 3308 2330 L 3217 2359 L 3113 2333 L 3032 2356 L 2987 2332 L 2889 2319 L 2738 2332 L 2712 2318 L 2633 2182 L 2579 2175 L 2556 2130 L 2464 2091 L 2311 2107 L 2232 2056 L 2174 2052 L 2067 2011 L 2008 1891 L 2008 1891 L 1937 1777 L 1932 1728 L 1859 1770 L 1839 1641 L 1696 1591 L 1681 1623 L 1540 1678 L 1438 1784 L 1336 1792 L 1281 1890 L 1235 1916 L 1131 2165 L 1178 2096 L 1224 2137 L 1186 2136 L 1179 2204 L 1130 2249 L 1045 2273 L 1016 2394 L 1080 2429 L 1101 2463 L 1100 2532 L 1130 2555 L 1191 2549 L 1148 2575 L 1100 2554 L 1100 2554 L 1091 2465 L 1056 2453 L 1008 2556 L 966 2616 L 764 2772 L 641 2845 L 622 2897 L 680 2979 L 612 2917 L 585 2918 L 612 2852 L 468 2912 L 481 2893 L 276 2896 L 203 2890 L 189 2961 L 186 3095 L 165 3209 L 123 3288 L 175 3359 L 218 3478 L 297 3539 L 358 3681 L 356 3711 L 457 3732 L 483 3772 L 565 3751 L 633 3934 L 647 3944 L 759 3902 L 746 3839 L 797 3817 L 883 3814 L 932 3774 L 942 3739 L 1014 3729 L 1075 3766 L 1120 3708 L 1322 3680 L 1437 3698 L 1494 3775 L 1491 3818 L 1558 3880 L 1649 3893 L 1674 3850 L 1642 3831 L 1675 3790 L 1734 3837 L 1806 3862 L 1822 3972 L 1786 4046 L 1786 4139 L 1912 4232 L 1960 4303 L 2112 4387 L 2131 4441 L 2232 4451 L 2306 4403 L 2358 4403 L 2402 4317 L 2485 4291 L 2581 4202 L 2658 4158 L 2713 4095 L 2867 4099 L 2939 4087 L 3174 4077 L 3257 4124 L 3401 4098 L 3464 4148 L 3485 4110 L 3546 4103 L 3587 4125 L 3615 4174 L 3660 4183 L 3716 4164 L 3821 4158 L 3857 4185 L 3914 4130 L 3956 4177 L 4015 4163 L 4116 4241 L 4184 4207 L 4269 4208 L 4268 4138 L 4339 4102 L 4355 3996 L 4390 3955 L 4379 3880 L 4363 3734 L 4470 3711 L 4470 3711 Z" stroke="#D1D823" stroke-width="inherit" opacity="1" class="highcharts-point highcharts-color-3 highcharts-name-andalucía highcharts-key-4" tabindex="-1" role="img" aria-label="1. Andalucía, value: 38,098,576919 GWh. Demanda b.c. (GWh)." style="outline: none;"></path><path fill="#FDF9E0" d="M 6539 7335 L 6532 7297 L 6574 7248 L 6565 7154 L 6535 7133 L 6520 7080 L 6450 7029 L 6458 6978 L 6458 6978 L 6521 6888 L 6493 6788 L 6514 6726 L 6439 6619 L 6338 6578 L 6315 6609 L 6241 6611 L 6166 6659 L 6121 6621 L 6114 6568 L 6059 6532 L 6001 6527 L 6005 6483 L 6070 6472 L 6072 6369 L 6089 6331 L 6044 6283 L 6081 6219 L 6004 6142 L 6005 6109 L 5965 6080 L 5883 6080 L 5832 5900 L 5726 5865 L 5665 5800 L 5655 5762 L 5696 5691 L 5651 5666 L 5606 5675 L 5586 5770 L 5523 5793 L 5406 5782 L 5390 5823 L 5447 5849 L 5456 5882 L 5397 5927 L 5329 5939 L 5278 6020 L 5256 5964 L 5155 5962 L 5157 6012 L 5068 6019 L 4981 6099 L 4938 6103 L 4931 6153 L 4859 6221 L 4859 6221 L 4944 6319 L 4965 6421 L 5033 6403 L 5061 6429 L 5070 6501 L 5053 6566 L 5061 6664 L 5015 6706 L 4996 6798 L 4996 6798 L 4905 6880 L 4877 6920 L 4733 7022 L 4647 7006 L 4570 7050 L 4549 7156 L 4554 7210 L 4584 7243 L 4605 7313 L 4643 7306 L 4674 7257 L 4727 7287 L 4699 7383 L 4690 7476 L 4741 7485 L 4832 7558 L 4848 7610 L 4798 7684 L 4821 7749 L 4786 7857 L 4795 7886 L 4789 7906 L 4849 7898 L 4891 7865 L 4943 7868 L 5024 7816 L 5081 7829 L 5132 7816 L 5210 7954 L 5146 8047 L 5126 8145 L 5149 8230 L 5186 8283 L 5179 8351 L 5231 8429 L 5241 8499 L 5281 8505 L 5326 8594 L 5404 8606 L 5418 8655 L 5510 8707 L 5545 8755 L 5551 8821 L 5581 8880 L 5627 8896 L 5640 8853 L 5705 8826 L 5758 8771 L 5795 8785 L 5881 8770 L 5958 8828 L 6028 8771 L 6085 8783 L 6121 8701 L 6185 8670 L 6345 8721 L 6399 8706 L 6430 8663 L 6489 8718 L 6518 8685 L 6688 8696 L 6731 8707 L 6769 8643 L 6814 8620 L 6813 8577 L 6771 8485 L 6817 8343 L 6814 8254 L 6789 8151 L 6791 8101 L 6750 7964 L 6700 7918 L 6721 7838 L 6645 7765 L 6614 7715 L 6576 7703 L 6519 7621 L 6551 7539 L 6598 7535 L 6614 7487 L 6584 7433 L 6544 7405 L 6539 7335 M 5308 8343 L 5322 8367 L 5317 8382 L 5294 8364 L 5308 8343 L 5308 8343 M 5393 8380 L 5367 8428 L 5347 8417 L 5340 8389 L 5393 8380 L 5393 8380 Z" stroke="#D1D823" stroke-width="inherit" opacity="1" class="highcharts-point highcharts-color-0 highcharts-name-aragón highcharts-key-5" tabindex="-1" role="img" aria-label="2. Aragón, value: 9,679,465625 GWh. Demanda b.c. (GWh)." style="outline: none;"></path><path fill="#FDF9E0" d="M 762 9504 L 800 9580 L 978 9586 L 1029 9572 L 1072 9594 L 1177 9557 L 1328 9575 L 1399 9601 L 1433 9579 L 1516 9570 L 1552 9589 L 1641 9587 L 1642 9638 L 1685 9665 L 1738 9636 L 1793 9563 L 1857 9547 L 2011 9550 L 2037 9529 L 2119 9519 L 2199 9471 L 2266 9466 L 2355 9436 L 2372 9448 L 2461 9425 L 2539 9390 L 2709 9373 L 2690 9315 L 2701 9251 L 2647 9263 L 2608 9236 L 2552 9229 L 2530 9152 L 2461 9149 L 2403 9201 L 2276 9135 L 2239 9068 L 2166 9054 L 2051 9053 L 2005 9012 L 1963 9012 L 1910 8982 L 1814 9012 L 1764 9005 L 1725 8937 L 1673 8935 L 1590 8985 L 1565 9033 L 1495 9038 L 1450 8999 L 1400 9015 L 1373 8988 L 1273 9030 L 1233 8982 L 1185 8970 L 1205 8926 L 1116 8893 L 994 8900 L 953 8874 L 909 8898 L 904 8948 L 823 9017 L 789 9012 L 825 9072 L 914 9114 L 890 9173 L 829 9130 L 814 9197 L 750 9244 L 736 9308 L 666 9405 L 673 9450 L 710 9448 L 762 9504 L 762 9504 Z" stroke="#D1D823" stroke-width="inherit" opacity="1" class="highcharts-point highcharts-color-0 highcharts-name-asturias highcharts-key-11" tabindex="-1" role="img" aria-label="3. Asturias, value: 8,287,272326999999 GWh. Demanda b.c. (GWh)." style="outline: none;"></path><path fill="#FDF9E0" d="M 3670 9185 L 3645 9174 L 3641 9220 L 3655 9216 L 3670 9185 L 3670 9185 M 2540 8966 L 2507 9033 L 2463 9064 L 2461 9149 L 2530 9152 L 2552 9229 L 2608 9236 L 2647 9263 L 2701 9251 L 2690 9315 L 2709 9373 L 2734 9352 L 2772 9372 L 2808 9352 L 2960 9374 L 3030 9405 L 3082 9408 L 3164 9454 L 3238 9469 L 3283 9450 L 3225 9415 L 3261 9399 L 3293 9443 L 3448 9490 L 3485 9451 L 3538 9442 L 3488 9399 L 3520 9380 L 3572 9393 L 3668 9372 L 3759 9326 L 3752 9271 L 3719 9254 L 3627 9262 L 3535 9191 L 3549 9093 L 3476 9096 L 3376 9131 L 3284 9043 L 3229 9034 L 3225 9005 L 3140 8944 L 3115 8867 L 3137 8844 L 3195 8885 L 3232 8862 L 3173 8818 L 3185 8788 L 3234 8810 L 3246 8744 L 3167 8706 L 3102 8702 L 3100 8759 L 3066 8702 L 3036 8695 L 2959 8759 L 2986 8800 L 2931 8788 L 2917 8893 L 2827 8931 L 2793 8982 L 2745 9001 L 2676 8973 L 2540 8966 L 2540 8966 Z" stroke="#D1D823" stroke-width="inherit" opacity="1" class="highcharts-point highcharts-color-0 highcharts-name-cantabria highcharts-key-6" tabindex="-1" role="img" aria-label="4. Cantabria, value: 3,467,117483 GWh. Demanda b.c. (GWh)." style="outline: none;"></path><path fill="#F9F1BD" d="M 3458 7006 L 3565 7061 L 3561 7114 L 3622 7103 L 3694 7117 L 3734 7154 L 3825 7133 L 3906 7140 L 3963 7178 L 4016 7121 L 4108 7127 L 4124 7106 L 4222 7068 L 4203 7043 L 4223 6999 L 4266 7007 L 4318 6933 L 4365 6911 L 4400 6928 L 4461 6915 L 4549 6941 L 4588 6969 L 4645 6937 L 4647 7006 L 4733 7022 L 4877 6920 L 4905 6880 L 4996 6798 L 5015 6706 L 5061 6664 L 5053 6566 L 5070 6501 L 5061 6429 L 5033 6403 L 4965 6421 L 4944 6319 L 4859 6221 L 4859 6221 L 4931 6153 L 4938 6103 L 4981 6099 L 5068 6019 L 5157 6012 L 5155 5962 L 5216 5829 L 5313 5807 L 5390 5823 L 5406 5782 L 5357 5745 L 5362 5666 L 5346 5595 L 5314 5538 L 5295 5463 L 5230 5473 L 5186 5431 L 5126 5325 L 5117 5226 L 5178 5138 L 5399 5078 L 5401 4990 L 5337 4833 L 5349 4796 L 5457 4688 L 5563 4711 L 5623 4644 L 5618 4538 L 5618 4538 L 5600 4513 L 5644 4436 L 5615 4409 L 5547 4397 L 5419 4499 L 5370 4485 L 5288 4424 L 5246 4434 L 5207 4389 L 5192 4319 L 5154 4261 L 5177 4123 L 5105 4039 L 5056 4023 L 5010 4043 L 5008 4075 L 4952 4093 L 4841 4013 L 4760 3983 L 4698 3993 L 4642 3934 L 4572 3891 L 4541 3828 L 4481 3749 L 4470 3711 L 4363 3734 L 4295 3766 L 4379 3880 L 4390 3955 L 4355 3996 L 4339 4102 L 4268 4138 L 4269 4208 L 4184 4207 L 4015 4163 L 3956 4177 L 3914 4130 L 3857 4185 L 3821 4158 L 3716 4164 L 3660 4183 L 3615 4174 L 3587 4125 L 3546 4103 L 3485 4110 L 3464 4148 L 3401 4098 L 3257 4124 L 3174 4077 L 2939 4087 L 2867 4099 L 2858 4046 L 2713 4095 L 2658 4158 L 2581 4202 L 2485 4291 L 2402 4317 L 2358 4403 L 2306 4403 L 2232 4451 L 2264 4458 L 2336 4611 L 2388 4615 L 2392 4678 L 2337 4693 L 2305 4784 L 2368 4769 L 2403 4785 L 2377 4847 L 2394 4909 L 2428 4944 L 2493 4940 L 2549 4916 L 2507 4971 L 2470 5067 L 2508 5096 L 2536 5173 L 2524 5207 L 2524 5207 L 2515 5195 L 2370 5121 L 2318 5148 L 2242 5240 L 2209 5256 L 2115 5370 L 2153 5437 L 2162 5497 L 2142 5574 L 2109 5574 L 2067 5532 L 2021 5554 L 2045 5648 L 2012 5677 L 1967 5670 L 1964 5711 L 1994 5905 L 2019 5916 L 2169 5891 L 2238 5947 L 2273 5949 L 2293 5910 L 2347 5937 L 2363 5972 L 2435 6030 L 2442 6062 L 2528 6077 L 2540 6015 L 2576 5994 L 2631 6009 L 2662 5994 L 2738 6036 L 2794 6108 L 2818 6046 L 2854 6016 L 2904 6066 L 2952 6082 L 2986 6048 L 3040 6056 L 3104 6011 L 3253 5958 L 3277 5933 L 3396 5901 L 3389 5828 L 3272 5733 L 3194 5705 L 3256 5672 L 3306 5718 L 3387 5754 L 3390 5773 L 3476 5806 L 3496 5833 L 3669 5839 L 3750 5876 L 3826 5860 L 3851 5895 L 3831 6036 L 3799 6073 L 3750 6046 L 3756 6112 L 3788 6199 L 3738 6258 L 3734 6323 L 3665 6344 L 3636 6412 L 3642 6463 L 3585 6505 L 3529 6514 L 3544 6552 L 3497 6621 L 3565 6824 L 3546 6917 L 3513 6931 L 3458 7006 L 3458 7006 Z" stroke="#D1D823" stroke-width="inherit" opacity="1" class="highcharts-point highcharts-color-1 highcharts-name-castilla-la-mancha highcharts-key-7" tabindex="-1" role="img" aria-label="5. Castilla La Mancha, value: 11,561,881954 GWh. Demanda b.c. (GWh)." style="outline: none;"></path><path fill="#F9F1BD" d="M 2836 6477 L 2887 6480 L 2873 6513 L 2898 6522 L 2965 6507 L 2957 6447 L 2900 6418 L 2861 6438 L 2866 6399 L 2838 6357 L 2832 6219 L 2766 6214 L 2724 6128 L 2660 6137 L 2666 6098 L 2631 6009 L 2576 5994 L 2540 6015 L 2528 6077 L 2442 6062 L 2435 6030 L 2363 5972 L 2347 5937 L 2293 5910 L 2273 5949 L 2238 5947 L 2169 5891 L 2019 5916 L 1992 5968 L 2000 6063 L 1944 6052 L 1899 6011 L 1849 6005 L 1798 6030 L 1732 6096 L 1648 6114 L 1646 6162 L 1576 6138 L 1557 6104 L 1490 6125 L 1404 6185 L 1427 6225 L 1319 6314 L 1224 6283 L 1191 6247 L 1066 6189 L 1031 6158 L 1031 6122 L 923 6086 L 813 6086 L 774 6122 L 842 6201 L 798 6258 L 794 6293 L 830 6355 L 806 6422 L 836 6508 L 822 6610 L 826 6712 L 791 6827 L 748 6900 L 778 6941 L 848 6936 L 893 6992 L 899 7038 L 993 7157 L 1059 7158 L 1212 7286 L 1256 7309 L 1286 7379 L 1352 7465 L 1301 7527 L 1228 7567 L 1154 7583 L 1111 7557 L 1079 7583 L 1064 7652 L 1110 7785 L 1070 7803 L 1078 7848 L 1035 7865 L 928 7865 L 877 7916 L 852 7874 L 781 7877 L 752 7898 L 769 7967 L 724 8018 L 780 8076 L 800 8120 L 853 8163 L 901 8162 L 920 8198 L 920 8198 L 980 8159 L 920 8198 L 920 8198 L 957 8252 L 946 8313 L 882 8366 L 899 8444 L 823 8476 L 781 8460 L 705 8471 L 754 8614 L 743 8683 L 834 8734 L 878 8786 L 883 8856 L 909 8898 L 953 8874 L 994 8900 L 1116 8893 L 1205 8926 L 1185 8970 L 1233 8982 L 1273 9030 L 1373 8988 L 1400 9015 L 1450 8999 L 1495 9038 L 1565 9033 L 1590 8985 L 1673 8935 L 1725 8937 L 1764 9005 L 1814 9012 L 1910 8982 L 1963 9012 L 2005 9012 L 2051 9053 L 2166 9054 L 2239 9068 L 2276 9135 L 2403 9201 L 2461 9149 L 2463 9064 L 2507 9033 L 2540 8966 L 2540 8966 L 2676 8973 L 2745 9001 L 2793 8982 L 2827 8931 L 2917 8893 L 2931 8788 L 2986 8800 L 2959 8759 L 3066 8702 L 3100 8759 L 3102 8702 L 3167 8706 L 3246 8744 L 3234 8810 L 3185 8788 L 3173 8818 L 3232 8862 L 3195 8885 L 3137 8844 L 3115 8867 L 3140 8944 L 3225 9005 L 3229 9034 L 3284 9043 L 3376 9131 L 3476 9096 L 3549 9093 L 3661 9154 L 3759 9137 L 3767 9120 L 3744 9084 L 3767 9056 L 3750 8974 L 3821 8961 L 3849 8999 L 3888 8956 L 3848 8933 L 3891 8895 L 3888 8869 L 3820 8847 L 3769 8857 L 3732 8889 L 3698 8880 L 3662 8826 L 3711 8766 L 3778 8828 L 3792 8807 L 3762 8753 L 3787 8702 L 3830 8720 L 3996 8594 L 4008 8572 L 3954 8553 L 3870 8568 L 3822 8551 L 3834 8524 L 3793 8469 L 3827 8449 L 3817 8410 L 3844 8368 L 3839 8292 L 3799 8259 L 3815 8176 L 3790 8098 L 3824 8036 L 3877 7978 L 3937 7979 L 3957 7917 L 3957 7917 L 4033 7933 L 4053 8000 L 4107 8014 L 4088 7917 L 4144 7895 L 4222 7895 L 4266 7968 L 4269 8007 L 4327 8036 L 4397 8047 L 4449 8035 L 4478 7993 L 4522 8009 L 4575 7996 L 4554 7968 L 4581 7924 L 4586 7862 L 4735 7825 L 4786 7857 L 4821 7749 L 4798 7684 L 4848 7610 L 4832 7558 L 4741 7485 L 4690 7476 L 4699 7383 L 4727 7287 L 4674 7257 L 4643 7306 L 4605 7313 L 4584 7243 L 4554 7210 L 4549 7156 L 4570 7050 L 4647 7006 L 4645 6937 L 4588 6969 L 4549 6941 L 4461 6915 L 4400 6928 L 4365 6911 L 4318 6933 L 4266 7007 L 4223 6999 L 4203 7043 L 4222 7068 L 4124 7106 L 4108 7127 L 4016 7121 L 3963 7178 L 3906 7140 L 3825 7133 L 3734 7154 L 3694 7117 L 3622 7103 L 3561 7114 L 3565 7061 L 3458 7006 L 3396 6982 L 3293 6881 L 3266 6832 L 3182 6799 L 3148 6758 L 3108 6613 L 3023 6593 L 2965 6507 L 2898 6522 L 2873 6513 L 2839 6503 L 2836 6477 M 4260 8585 L 4166 8585 L 4025 8634 L 3983 8685 L 4022 8730 L 4093 8732 L 4161 8711 L 4225 8693 L 4191 8638 L 4260 8585 L 4260 8585 Z" stroke="#D1D823" stroke-width="inherit" opacity="1" class="highcharts-point highcharts-color-1 highcharts-name-castilla-y-león highcharts-key-8" tabindex="-1" role="img" aria-label="6. Castilla y León, value: 12,997,611739 GWh. Demanda b.c. (GWh)." style="outline: none;"></path><path fill="#FFDD00" d="M 6439 6619 L 6514 6726 L 6493 6788 L 6521 6888 L 6458 6978 L 6450 7029 L 6520 7080 L 6535 7133 L 6565 7154 L 6565 7154 L 6574 7248 L 6532 7297 L 6539 7335 L 6544 7405 L 6584 7433 L 6614 7487 L 6598 7535 L 6551 7539 L 6519 7621 L 6576 7703 L 6614 7715 L 6645 7765 L 6721 7838 L 6700 7918 L 6750 7964 L 6791 8101 L 6789 8151 L 6814 8254 L 6817 8343 L 6771 8485 L 6813 8577 L 6814 8620 L 6769 8643 L 6731 8707 L 6705 8757 L 6718 8856 L 6770 8866 L 6840 8855 L 6926 8810 L 7041 8807 L 7095 8746 L 7239 8751 L 7273 8725 L 7332 8632 L 7318 8561 L 7354 8537 L 7322 8517 L 7356 8464 L 7404 8460 L 7504 8506 L 7510 8535 L 7622 8529 L 7730 8489 L 7763 8417 L 7833 8406 L 7895 8477 L 8004 8498 L 8120 8458 L 8156 8415 L 8204 8403 L 8220 8432 L 8310 8424 L 8291 8458 L 8327 8496 L 8387 8504 L 8512 8578 L 8587 8578 L 8618 8545 L 8708 8551 L 8708 8480 L 8733 8456 L 8823 8446 L 8787 8355 L 8699 8366 L 8676 8323 L 8686 8242 L 8763 8172 L 8752 8133 L 8788 8065 L 8763 7981 L 8731 7933 L 8676 7909 L 8671 7880 L 8571 7781 L 8507 7760 L 8454 7701 L 7505 7155 L 7309 7069 L 7254 7053 L 7229 7008 L 7127 7004 L 7076 6975 L 6991 6881 L 6868 6728 L 6854 6696 L 6912 6698 L 7000 6642 L 6983 6586 L 6932 6568 L 6874 6483 L 6803 6448 L 6782 6478 L 6840 6473 L 6892 6537 L 6787 6511 L 6730 6416 L 6675 6438 L 6617 6493 L 6540 6519 L 6533 6573 L 6476 6620 L 6439 6619 L 6439 6619 Z" stroke="#D1D823" stroke-width="inherit" opacity="1" class="highcharts-point highcharts-color-4 highcharts-name-cataluña highcharts-key-9" tabindex="-1" role="img" aria-label="7. Cataluña, value: 44,209,479737999995 GWh. Demanda b.c. (GWh)." style="outline: none;"></path><path fill="#FDF9E0" d="M 1781 1505 L 1865 1505 L 2057 1394 L 1928 1259 L 1781 1505 L 1781 1505 Z" stroke="#D1D823" stroke-width="inherit" opacity="1" class="highcharts-point highcharts-color-0 highcharts-name-ceuta highcharts-key-12" tabindex="-1" role="img" aria-label="8. Ceuta, value: 186,529132 GWh. Demanda b.c. (GWh)." style="outline: none;"></path><path fill="#FFEF85" d="M 3842 5950 L 3851 5895 L 3826 5860 L 3769 5853 L 3750 5876 L 3669 5839 L 3496 5833 L 3476 5806 L 3390 5773 L 3387 5754 L 3306 5718 L 3256 5672 L 3194 5705 L 3272 5733 L 3389 5828 L 3396 5901 L 3277 5933 L 3253 5958 L 3104 6011 L 3040 6056 L 2986 6048 L 2952 6082 L 2904 6066 L 2854 6016 L 2818 6046 L 2794 6108 L 2738 6036 L 2662 5994 L 2631 6009 L 2666 6098 L 2660 6137 L 2724 6128 L 2766 6214 L 2832 6219 L 2838 6357 L 2866 6399 L 2861 6438 L 2900 6418 L 2957 6447 L 2965 6507 L 3023 6593 L 3108 6613 L 3148 6758 L 3182 6799 L 3266 6832 L 3293 6881 L 3396 6982 L 3458 7006 L 3513 6931 L 3546 6917 L 3565 6824 L 3497 6621 L 3544 6552 L 3529 6514 L 3585 6505 L 3642 6463 L 3636 6412 L 3665 6344 L 3734 6323 L 3738 6258 L 3788 6199 L 3756 6112 L 3750 6046 L 3799 6073 L 3831 6036 L 3842 5950 L 3842 5950 M 2836 6477 L 2839 6503 L 2873 6513 L 2887 6480 L 2836 6477 L 2836 6477 Z" stroke="#D1D823" stroke-width="inherit" opacity="1" class="highcharts-point highcharts-color-2 highcharts-name-madrid highcharts-key-13" tabindex="-1" role="img" aria-label="9. Madrid, value: 27,112,944546 GWh. Demanda b.c. (GWh)." style="outline: none;"></path><path fill="#FFEF85" d="M 5390 5823 L 5313 5807 L 5216 5829 L 5155 5962 L 5256 5964 L 5278 6020 L 5329 5939 L 5397 5927 L 5456 5882 L 5447 5849 L 5390 5823 L 5390 5823 M 6187 5538 L 6177 5483 L 6090 5324 L 6097 5189 L 6115 5120 L 6191 4975 L 6170 4958 L 6200 4867 L 6279 4736 L 6474 4637 L 6537 4591 L 6575 4520 L 6522 4495 L 6442 4409 L 6380 4395 L 6322 4299 L 6230 4279 L 6114 4213 L 6066 4145 L 6061 4109 L 5982 4078 L 5992 3940 L 5905 3907 L 5878 3840 L 5874 3707 L 5823 3656 L 5791 3553 L 5725 3574 L 5658 3641 L 5567 3780 L 5555 3831 L 5594 3923 L 5603 3995 L 5566 4061 L 5511 4075 L 5504 4161 L 5551 4217 L 5563 4303 L 5547 4397 L 5615 4409 L 5644 4436 L 5600 4513 L 5623 4644 L 5563 4711 L 5457 4688 L 5349 4796 L 5337 4833 L 5401 4990 L 5399 5078 L 5178 5138 L 5132 5195 L 5117 5226 L 5126 5325 L 5186 5431 L 5230 5473 L 5295 5463 L 5314 5538 L 5346 5595 L 5362 5666 L 5357 5745 L 5406 5782 L 5523 5793 L 5586 5770 L 5606 5675 L 5651 5666 L 5655 5762 L 5665 5800 L 5726 5865 L 5832 5900 L 5883 6080 L 5965 6080 L 6005 6109 L 6004 6142 L 6081 6219 L 6044 6283 L 6089 6331 L 6072 6369 L 6070 6472 L 6005 6483 L 6001 6527 L 6059 6532 L 6114 6568 L 6121 6621 L 6166 6659 L 6241 6611 L 6315 6609 L 6338 6578 L 6439 6619 L 6476 6620 L 6533 6573 L 6540 6519 L 6617 6493 L 6675 6438 L 6602 6156 L 6491 6031 L 6446 5932 L 6384 5879 L 6333 5772 L 6265 5681 L 6187 5538 Z" stroke="#D1D823" stroke-width="inherit" opacity="1" class="highcharts-point highcharts-color-2 highcharts-name-comunidad-valenciana highcharts-key-15" tabindex="-1" role="img" aria-label="10. Comunidad Valenciana, value: 26,366,646748 GWh. Demanda b.c. (GWh)." style="outline: none;"></path><path fill="#FDF9E0" d="M 1700 6110 L 1732 6096 L 1798 6030 L 1849 6005 L 1899 6011 L 1944 6052 L 2000 6063 L 1992 5968 L 2019 5916 L 1994 5905 L 1964 5711 L 1967 5670 L 2012 5677 L 2045 5648 L 2021 5554 L 2067 5532 L 2109 5574 L 2142 5574 L 2162 5497 L 2153 5437 L 2115 5370 L 2209 5256 L 2242 5240 L 2370 5121 L 2475 5174 L 2475 5174 L 2515 5195 L 2524 5207 L 2536 5173 L 2508 5096 L 2470 5067 L 2507 4971 L 2549 4916 L 2493 4940 L 2428 4944 L 2394 4909 L 2377 4847 L 2403 4785 L 2368 4769 L 2305 4784 L 2337 4693 L 2392 4678 L 2388 4615 L 2336 4611 L 2264 4458 L 2232 4451 L 2131 4441 L 2112 4387 L 1960 4303 L 1912 4232 L 1786 4139 L 1786 4046 L 1822 3972 L 1806 3862 L 1770 3834 L 1734 3837 L 1675 3790 L 1642 3831 L 1674 3850 L 1649 3893 L 1558 3880 L 1491 3818 L 1494 3775 L 1437 3698 L 1322 3680 L 1263 3640 L 1120 3708 L 1075 3766 L 1014 3729 L 942 3739 L 932 3774 L 883 3814 L 797 3817 L 746 3839 L 759 3902 L 647 3944 L 633 3934 L 570 3937 L 505 3912 L 456 4018 L 338 4183 L 304 4208 L 343 4322 L 380 4371 L 369 4407 L 390 4511 L 492 4593 L 571 4628 L 565 4681 L 645 4793 L 627 4868 L 595 4895 L 522 4886 L 490 4904 L 492 4964 L 431 4993 L 369 5149 L 385 5270 L 317 5311 L 226 5421 L 196 5513 L 371 5497 L 458 5509 L 501 5495 L 621 5506 L 643 5532 L 654 5624 L 719 5694 L 722 5748 L 760 5838 L 702 5939 L 654 5957 L 634 6024 L 651 6060 L 774 6122 L 813 6086 L 923 6086 L 1031 6122 L 1031 6158 L 1066 6189 L 1191 6247 L 1224 6283 L 1319 6314 L 1427 6225 L 1404 6185 L 1490 6125 L 1557 6104 L 1576 6138 L 1646 6162 L 1648 6114 L 1700 6110 L 1700 6110 Z" stroke="#D1D823" stroke-width="inherit" opacity="1" class="highcharts-point highcharts-color-0 highcharts-name-extremadura highcharts-key-16" tabindex="-1" role="img" aria-label="11. Extremadura, value: 4,760,849529 GWh. Demanda b.c. (GWh)." style="outline: none;"></path><path fill="#F9F1BD" d="M 920 8198 L 901 8162 L 853 8163 L 800 8120 L 780 8076 L 724 8018 L 769 7967 L 752 7898 L 698 7878 L 626 7929 L 582 7906 L 581 7840 L 537 7802 L 415 7777 L 384 7747 L 365 7797 L 244 7781 L 257 7824 L 168 7855 L 29 7818 L 24 7877 L -9 7829 L -47 7828 L -93 7780 L -197 7779 L -198 7829 L -234 7861 L -190 7942 L -130 7987 L -118 8018 L -150 8054 L -192 8044 L -212 8142 L -212 8142 L -312 8092 L -434 8079 L -535 8051 L -572 7999 L -637 7970 L -660 7938 L -731 7891 L -741 7911 L -745 8116 L -687 8143 L -701 8176 L -638 8238 L -519 8315 L -514 8363 L -558 8314 L -655 8277 L -711 8278 L -677 8366 L -635 8362 L -541 8448 L -562 8464 L -616 8432 L -701 8445 L -750 8515 L -707 8531 L -667 8492 L -657 8606 L -618 8641 L -579 8727 L -638 8685 L -663 8725 L -672 8682 L -771 8622 L -807 8573 L -849 8645 L -810 8761 L -721 8840 L -725 8856 L -819 8853 L -847 8813 L -885 8876 L -856 8896 L -886 8924 L -877 8987 L -945 9015 L -983 8965 L -999 8999 L -961 9097 L -981 9138 L -929 9198 L -876 9211 L -926 9241 L -862 9286 L -834 9271 L -776 9290 L -762 9319 L -722 9305 L -741 9365 L -625 9417 L -513 9363 L -434 9391 L -408 9378 L -316 9438 L -273 9447 L -249 9407 L -228 9466 L -180 9443 L -134 9380 L -132 9455 L -108 9471 L -176 9486 L -191 9524 L -113 9530 L -103 9552 L -226 9535 L -205 9635 L -143 9641 L -27 9721 L -4 9776 L 79 9794 L 136 9826 L 159 9770 L 247 9807 L 286 9851 L 319 9806 L 342 9740 L 394 9781 L 433 9773 L 525 9721 L 570 9633 L 625 9599 L 741 9594 L 776 9577 L 762 9504 L 710 9448 L 673 9450 L 666 9405 L 736 9308 L 750 9244 L 814 9197 L 829 9130 L 890 9173 L 914 9114 L 825 9072 L 789 9012 L 823 9017 L 904 8948 L 909 8898 L 909 8898 L 883 8856 L 878 8786 L 834 8734 L 743 8683 L 754 8614 L 781 8460 L 823 8476 L 899 8444 L 882 8366 L 946 8313 L 957 8252 L 920 8198 Z" stroke="#D1D823" stroke-width="inherit" opacity="1" class="highcharts-point highcharts-color-1 highcharts-name-galicia highcharts-key-17" tabindex="-1" role="img" aria-label="12. Galicia, value: 12,965,792895999999 GWh. Demanda b.c. (GWh)." style="outline: none;"></path><path fill="#FDF9E0" d="M 7571 4586 L 7615 4531 L 7680 4531 L 7696 4492 L 7648 4485 L 7592 4515 L 7533 4470 L 7529 4544 L 7571 4586 L 7571 4586 M 8812 5080 L 8772 5054 L 8755 5089 L 8807 5128 L 8812 5080 L 8812 5080 M 7377 4737 L 7393 4804 L 7446 4809 L 7435 4878 L 7485 4927 L 7631 4978 L 7665 4967 L 7707 4889 L 7620 4779 L 7544 4733 L 7538 4671 L 7487 4700 L 7419 4692 L 7377 4737 L 7377 4737 M 9016 5740 L 9063 5781 L 9163 5752 L 9163 5686 L 9123 5628 L 9121 5582 L 9059 5505 L 9035 5394 L 8990 5326 L 8866 5221 L 8775 5314 L 8667 5306 L 8612 5341 L 8587 5404 L 8599 5448 L 8563 5488 L 8513 5507 L 8445 5467 L 8410 5403 L 8387 5399 L 8351 5467 L 8301 5449 L 8270 5484 L 8267 5540 L 8354 5596 L 8391 5642 L 8432 5658 L 8534 5772 L 8618 5840 L 8712 5891 L 8825 5923 L 8906 5963 L 8927 5944 L 8844 5900 L 8845 5866 L 8935 5885 L 8926 5849 L 8880 5825 L 8909 5752 L 9016 5740 L 9016 5740 M 9724 5898 L 9585 5973 L 9435 5971 L 9447 6023 L 9406 6051 L 9418 6088 L 9655 6121 L 9707 6104 L 9790 6038 L 9851 5935 L 9821 5954 L 9825 5885 L 9784 5875 L 9724 5898 L 9724 5898 Z" stroke="#D1D823" stroke-width="inherit" opacity="1" class="highcharts-point highcharts-color-0 highcharts-name-islas-baleares highcharts-key-18" tabindex="-1" role="img" aria-label="13. Islas Baleares, value: 5,998,788642 GWh. Demanda b.c. (GWh)." style="outline: none;"></path><path fill="#FDF9E0" d="M -4215 1216 L -4257 1170 L -4261 1154 L -4263 1148 L -4277 1144 L -4283 1134 L -4297 1124 L -4301 1116 L -4307 1096 L -4315 1086 L -4327 1088 L -4343 1100 L -4353 1116 L -4359 1130 L -4367 1140 L -4427 1158 L -4441 1168 L -4451 1182 L -4451 1216 L -4427 1222 L -4393 1214 L -4361 1200 L -4347 1206 L -4311 1232 L -4303 1240 L -4301 1248 L -4297 1252 L -4279 1258 L -4247 1272 L -4231 1266 L -4219 1256 L -4209 1242 L -4209 1230 L -4215 1216 L -4215 1216 M -3631 1338 L -3653 1334 L -3673 1342 L -3711 1376 L -3731 1420 L -3727 1454 L -3717 1488 L -3689 1516 L -3647 1520 L -3611 1504 L -3579 1476 L -3539 1436 L -3533 1414 L -3531 1394 L -3547 1376 L -3565 1368 L -3593 1350 L -3611 1340 L -3631 1338 L -3631 1338 M -2673 1708 L -2685 1684 L -2711 1670 L -2777 1646 L -2793 1622 L -2839 1588 L -2863 1572 L -2879 1568 L -2891 1562 L -2901 1546 L -2905 1526 L -2901 1500 L -2905 1492 L -2923 1478 L -2931 1458 L -2965 1412 L -2977 1374 L -2981 1358 L -3009 1330 L -3069 1284 L -3093 1256 L -3119 1266 L -3203 1246 L -3215 1252 L -3223 1266 L -3223 1274 L -3221 1284 L -3233 1296 L -3235 1304 L -3233 1328 L -3243 1344 L -3269 1380 L -3275 1394 L -3277 1416 L -3287 1432 L -3299 1446 L -3305 1460 L -3305 1502 L -3305 1510 L -3315 1530 L -3321 1552 L -3343 1584 L -3349 1604 L -3327 1614 L -3281 1628 L -3265 1618 L -3249 1602 L -3229 1596 L -3205 1600 L -3185 1606 L -3139 1616 L -3123 1610 L -3075 1606 L -3055 1616 L -3035 1616 L -3025 1618 L -3009 1618 L -2991 1628 L -2929 1670 L -2923 1676 L -2915 1694 L -2877 1710 L -2857 1712 L -2841 1716 L -2835 1732 L -2821 1724 L -2743 1712 L -2691 1722 L -2673 1708 L -2673 1708 M -4047 2166 L -4027 2158 L -3993 2166 L -3979 2158 L -3967 2144 L -3961 2132 L -3965 2144 L -3963 2092 L -3959 2074 L -3945 2064 L -3947 2048 L -3975 2024 L -3989 2004 L -3981 1952 L -3991 1936 L -3999 1912 L -4023 1890 L -4045 1856 L -4065 1828 L -4075 1810 L -4079 1810 L -4083 1820 L -4099 1832 L -4103 1852 L -4101 1898 L -4109 1910 L -4113 1926 L -4125 1950 L -4127 1972 L -4149 2024 L -4149 2048 L -4151 2078 L -4163 2090 L -4169 2102 L -4161 2128 L -4135 2156 L -4103 2176 L -4081 2186 L -4065 2172 L -4047 2166 L -4047 2166 M -2157 1236 L -2161 1212 L -2161 1174 L -2157 1144 L -2151 1132 L -2133 1116 L -2131 1110 L -2135 1094 L -2145 1080 L -2149 1062 L -2139 1046 L -2141 1040 L -2149 1038 L -2157 1030 L -2167 1012 L -2161 998 L -2159 980 L -2161 966 L -2177 962 L -2187 956 L -2219 928 L -2231 918 L -2291 908 L -2305 904 L -2329 882 L -2341 880 L -2363 898 L -2397 904 L -2413 910 L -2425 918 L -2463 962 L -2471 978 L -2487 990 L -2497 1004 L -2513 1060 L -2515 1078 L -2509 1096 L -2511 1108 L -2511 1122 L -2507 1136 L -2501 1146 L -2493 1154 L -2459 1166 L -2443 1176 L -2421 1192 L -2403 1214 L -2405 1236 L -2395 1244 L -2389 1260 L -2387 1278 L -2391 1292 L -2373 1290 L -2359 1280 L -2347 1282 L -2305 1262 L -2243 1254 L -2193 1234 L -2173 1238 L -2173 1270 L -2147 1270 L -2145 1268 L -2143 1256 L -2143 1248 L -2151 1246 L -2157 1236 L -2157 1236 M -1205 1104 L -1231 1078 L -1257 1054 L -1293 1042 L -1315 1044 L -1345 1064 L -1361 1070 L -1361 1072 L -1425 1078 L -1421 1080 L -1413 1102 L -1407 1106 L -1381 1098 L -1365 1098 L -1333 1104 L -1283 1120 L -1221 1150 L -1193 1172 L -1179 1186 L -1167 1200 L -1161 1216 L -1151 1262 L -1141 1278 L -1121 1304 L -1093 1366 L -1087 1376 L -1075 1382 L -1047 1420 L -1023 1462 L -985 1506 L -971 1550 L -955 1578 L -947 1610 L -943 1622 L -933 1630 L -919 1636 L -887 1646 L -857 1646 L -829 1634 L -809 1606 L -803 1574 L -805 1532 L -821 1454 L -829 1436 L -847 1402 L -851 1390 L -855 1360 L -855 1350 L -849 1330 L -847 1322 L -853 1314 L -869 1302 L -873 1298 L -877 1280 L -879 1272 L -895 1254 L -905 1240 L -917 1210 L -939 1180 L -967 1170 L -1055 1166 L -1095 1158 L -1123 1142 L -1157 1138 L -1175 1130 L -1205 1104 L -1205 1104 M -461 1968 L -465 1954 L -461 1928 L -461 1910 L -463 1904 L -475 1886 L -479 1854 L -493 1834 L -519 1816 L -547 1804 L -587 1800 L -603 1784 L -613 1782 L -625 1782 L -645 1780 L -657 1780 L -687 1776 L -709 1762 L -729 1740 L -747 1714 L -751 1714 L -759 1728 L -775 1734 L -873 1740 L -819 1746 L -823 1756 L -823 1768 L -821 1772 L -811 1774 L -803 1780 L -793 1796 L -789 1810 L -781 1854 L -777 1866 L -775 1908 L -729 1922 L -717 1928 L -703 1932 L -687 1934 L -669 1934 L -653 1936 L -623 1956 L -605 1964 L -591 1968 L -577 1968 L -537 1964 L -525 1966 L -515 1976 L -501 1998 L -489 2028 L -481 2042 L -471 2074 L -455 2056 L -441 2046 L -421 2020 L -431 2002 L -435 1988 L -443 1976 L -461 1968 L -461 1968 M -477 2058 L -499 2046 L -519 2050 L -517 2058 L -503 2070 L -495 2088 L -485 2102 L -469 2096 L -463 2078 L -477 2058 L -477 2058 Z" stroke="#D1D823" stroke-width="inherit" opacity="1" class="highcharts-point highcharts-color-0 highcharts-name-islas-canarias highcharts-key-19" tabindex="-1" role="img" aria-label="14. Islas Canarias, value: 8,750,290993 GWh. Demanda b.c. (GWh)." style="outline: none;"></path><path fill="#FDF9E0" d="M 4786 7857 L 4735 7825 L 4586 7862 L 4581 7924 L 4554 7968 L 4575 7996 L 4522 8009 L 4478 7993 L 4449 8035 L 4397 8047 L 4327 8036 L 4269 8007 L 4266 7968 L 4222 7895 L 4144 7895 L 4088 7917 L 4107 8014 L 4053 8000 L 4033 7933 L 3957 7917 L 3937 7979 L 3877 7978 L 3824 8036 L 3790 8098 L 3815 8176 L 3799 8259 L 3839 8292 L 3844 8368 L 3817 8410 L 3827 8449 L 3793 8469 L 3834 8524 L 3822 8551 L 3870 8568 L 3954 8553 L 4008 8572 L 4016 8515 L 4053 8511 L 4078 8546 L 4127 8508 L 4128 8461 L 4207 8419 L 4271 8463 L 4346 8421 L 4446 8415 L 4503 8370 L 4604 8368 L 4639 8316 L 4683 8317 L 4775 8204 L 4906 8135 L 4916 8064 L 4895 8050 L 4808 8058 L 4753 7984 L 4758 7931 L 4789 7906 L 4795 7886 L 4786 7857 L 4786 7857 Z" stroke="#D1D823" stroke-width="inherit" opacity="1" class="highcharts-point highcharts-color-0 highcharts-name-la-rioja highcharts-key-20" tabindex="-1" role="img" aria-label="15. La Rioja, value: 1,532,857871 GWh. Demanda b.c. (GWh)." style="outline: none;"></path><path fill="#FDF9E0" d="M 3986 901 L 4106 681 L 4002 641 L 3918 833 L 3986 901 L 3986 901 Z" stroke="#D1D823" stroke-width="inherit" opacity="1" class="highcharts-point highcharts-color-0 highcharts-name-melilla highcharts-key-8746" tabindex="-1" role="img" aria-label="16. Melilla, value: 202,034435 GWh. Demanda b.c. (GWh)." style="outline: none;"></path><path fill="#FDF9E0" d="M 4579 3596 L 4535 3635 L 4470 3711 L 4481 3749 L 4541 3828 L 4572 3891 L 4642 3934 L 4698 3993 L 4760 3983 L 4841 4013 L 4952 4093 L 5008 4075 L 5010 4043 L 5056 4023 L 5105 4039 L 5177 4123 L 5154 4261 L 5192 4319 L 5207 4389 L 5246 4434 L 5288 4424 L 5370 4485 L 5419 4499 L 5547 4397 L 5563 4303 L 5551 4217 L 5504 4161 L 5511 4075 L 5566 4061 L 5603 3995 L 5594 3923 L 5555 3831 L 5567 3780 L 5658 3641 L 5725 3574 L 5791 3553 L 5718 3421 L 5756 3363 L 5845 3316 L 5663 3243 L 5622 3263 L 5541 3267 L 5499 3241 L 5512 3213 L 5396 3260 L 5328 3240 L 5207 3152 L 5194 3100 L 5066 3042 L 4989 3101 L 4899 3116 L 4759 3323 L 4754 3465 L 4769 3552 L 4611 3576 L 4579 3596 L 4579 3596 Z" stroke="#D1D823" stroke-width="inherit" opacity="1" class="highcharts-point highcharts-color-0 highcharts-name-murcia highcharts-key-21" tabindex="-1" role="img" aria-label="17. Murcia, value: 8,872,301799 GWh. Demanda b.c. (GWh)." style="outline: none;"></path><path fill="#FDF9E0" d="M 5308 8343 L 5294 8364 L 5317 8382 L 5322 8367 L 5308 8343 L 5308 8343 M 5393 8380 L 5340 8389 L 5347 8417 L 5367 8428 L 5393 8380 L 5393 8380 M 5627 8896 L 5581 8880 L 5551 8821 L 5545 8755 L 5510 8707 L 5418 8655 L 5404 8606 L 5326 8594 L 5281 8505 L 5241 8499 L 5231 8429 L 5179 8351 L 5186 8283 L 5149 8230 L 5126 8145 L 5146 8047 L 5210 7954 L 5132 7816 L 5081 7829 L 5024 7816 L 4943 7868 L 4891 7865 L 4849 7898 L 4789 7906 L 4758 7931 L 4753 7984 L 4808 8058 L 4895 8050 L 4916 8064 L 4906 8135 L 4775 8204 L 4683 8317 L 4639 8316 L 4604 8368 L 4503 8370 L 4446 8415 L 4346 8421 L 4344 8526 L 4310 8504 L 4277 8539 L 4341 8593 L 4375 8570 L 4432 8597 L 4409 8658 L 4436 8684 L 4468 8784 L 4458 8848 L 4488 8901 L 4551 8899 L 4620 8950 L 4640 9027 L 4707 9079 L 4712 9161 L 4786 9211 L 4840 9272 L 4898 9283 L 4926 9233 L 4966 9229 L 4987 9264 L 5108 9224 L 5094 9110 L 5047 9052 L 5089 9004 L 5130 8998 L 5155 9067 L 5213 9019 L 5311 8979 L 5406 8961 L 5443 8931 L 5535 8919 L 5594 8932 L 5627 8896 L 5627 8896 Z" stroke="#D1D823" stroke-width="inherit" opacity="1" class="highcharts-point highcharts-color-0 highcharts-name-navarra highcharts-key-14" tabindex="-1" role="img" aria-label="18. Navarra, value: 4,665,208605000001 GWh. Demanda b.c. (GWh)." style="outline: none;"></path><path fill="#F9F1BD" d="M 4468 8784 L 4436 8684 L 4409 8658 L 4432 8597 L 4375 8570 L 4341 8593 L 4277 8539 L 4310 8504 L 4344 8526 L 4346 8421 L 4271 8463 L 4207 8419 L 4128 8461 L 4127 8508 L 4078 8546 L 4053 8511 L 4016 8515 L 4008 8572 L 3996 8594 L 3830 8720 L 3787 8702 L 3762 8753 L 3792 8807 L 3778 8828 L 3711 8766 L 3662 8826 L 3698 8880 L 3732 8889 L 3769 8857 L 3820 8847 L 3888 8869 L 3891 8895 L 3848 8933 L 3888 8956 L 3849 8999 L 3821 8961 L 3750 8974 L 3767 9056 L 3744 9084 L 3767 9120 L 3767 9120 L 3759 9137 L 3661 9154 L 3549 9093 L 3535 9191 L 3627 9262 L 3719 9254 L 3752 9271 L 3759 9326 L 3806 9333 L 3869 9285 L 3852 9339 L 3928 9409 L 4062 9424 L 4094 9397 L 4113 9337 L 4135 9384 L 4273 9342 L 4427 9273 L 4495 9286 L 4548 9258 L 4734 9334 L 4790 9377 L 4802 9320 L 4840 9272 L 4786 9211 L 4712 9161 L 4707 9079 L 4640 9027 L 4620 8950 L 4551 8899 L 4488 8901 L 4458 8848 L 4468 8784 M 4260 8585 L 4191 8638 L 4225 8693 L 4161 8711 L 4093 8732 L 4022 8730 L 3983 8685 L 4025 8634 L 4166 8585 L 4260 8585 L 4260 8585 Z" stroke="#D1D823" stroke-width="inherit" opacity="1" class="highcharts-point highcharts-color-1 highcharts-name-país-vasco highcharts-key-10" tabindex="-1" role="img" aria-label="19. País Vasco, value: 14,943,650436 GWh. Demanda b.c. (GWh)." style="outline: none;"></path><path fill="#f7f7f7" d="M -3500 6527 L -3500 6528 L -3501 6528 L -3501 6527 L -3500 6527 Z" stroke="#D1D823" stroke-width="inherit" opacity="1" class="highcharts-point highcharts-null-point highcharts-color-0 highcharts-name-nacional highcharts-key-es-national" tabindex="-1" role="img" aria-label="20. Nacional, No value. Demanda b.c. (GWh)." style="outline: none;"></path></g></g><g class="highcharts-markers highcharts-series-0 highcharts-map-series highcharts-color-0" data-z-index="0.1" opacity="1" transform="translate(0,60) scale(1 1)" clip-path="none" aria-hidden="true"></g></g><text x="300" text-anchor="middle" class="highcharts-title" data-z-index="4" style="color: rgb(51, 51, 51); font-size: 18px; fill: rgb(51, 51, 51);" y="74" aria-hidden="true"></text><text x="300" text-anchor="middle" class="highcharts-subtitle" data-z-index="4" style="color: rgb(102, 102, 102); fill: rgb(102, 102, 102);" y="74" aria-hidden="true"></text><text x="0" text-anchor="start" class="highcharts-caption" data-z-index="4" style="color: rgb(102, 102, 102); fill: rgb(102, 102, 102);" y="597" aria-hidden="true"></text><g class="highcharts-map-view" data-z-index="4" aria-hidden="true"></g><g class="highcharts-legend highcharts-no-tooltip" data-z-index="7" transform="translate(0,540)" aria-hidden="true"><rect fill="none" class="highcharts-legend-box" rx="0" ry="0" x="0" y="0" width="443" height="45" visibility="visible"></rect><g data-z-index="1"><g><g class="highcharts-legend-item highcharts-undefined-series highcharts-color-0 highcharts-series-undefined" data-z-index="1" transform="translate(8,3)"><text x="21" text-anchor="start" data-z-index="2" y="17" style="color: rgb(43, 144, 143); cursor: pointer; font-size: 14px; font-weight: bold; font-family: &quot;Atkinson Hyperlegible&quot;; fill: rgb(43, 144, 143);">100 - 10.080</text><rect x="1" y="4" width="14" height="14" fill="#FDF9E0" rx="7" ry="7" class="highcharts-point" data-z-index="3"></rect></g><g class="highcharts-legend-item highcharts-undefined-series highcharts-color-1 highcharts-series-undefined" data-z-index="1" transform="translate(157.31390380859375,3)"><text x="21" y="17" text-anchor="start" data-z-index="2" style="color: rgb(43, 144, 143); cursor: pointer; font-size: 14px; font-weight: bold; font-family: &quot;Atkinson Hyperlegible&quot;; fill: rgb(43, 144, 143);">10.080 - 20.060</text><rect x="1" y="4" width="14" height="14" fill="#F9F1BD" rx="7" ry="7" class="highcharts-point" data-z-index="3"></rect></g><g class="highcharts-legend-item highcharts-undefined-series highcharts-color-2 highcharts-series-undefined" data-z-index="1" transform="translate(306.6278076171875,3)"><text x="21" y="17" text-anchor="start" data-z-index="2" style="color: rgb(43, 144, 143); cursor: pointer; font-size: 14px; font-weight: bold; font-family: &quot;Atkinson Hyperlegible&quot;; fill: rgb(43, 144, 143);">20.060 - 30.040</text><rect x="1" y="4" width="14" height="14" fill="#FFEF85" rx="7" ry="7" class="highcharts-point" data-z-index="3"></rect></g><g class="highcharts-legend-item highcharts-undefined-series highcharts-color-3 highcharts-series-undefined" data-z-index="1" transform="translate(8,20)"><text x="21" y="17" text-anchor="start" data-z-index="2" style="color: rgb(43, 144, 143); cursor: pointer; font-size: 14px; font-weight: bold; font-family: &quot;Atkinson Hyperlegible&quot;; fill: rgb(43, 144, 143);">30.040 - 40.020</text><rect x="1" y="4" width="14" height="14" fill="#FFE747" rx="7" ry="7" class="highcharts-point" data-z-index="3"></rect></g><g class="highcharts-legend-item highcharts-undefined-series highcharts-color-4 highcharts-series-undefined" data-z-index="1" transform="translate(157.31390380859375,20)"><text x="21" y="17" text-anchor="start" data-z-index="2" style="color: rgb(43, 144, 143); cursor: pointer; font-size: 14px; font-weight: bold; font-family: &quot;Atkinson Hyperlegible&quot;; fill: rgb(43, 144, 143);">40.020 - 50.000</text><rect x="1" y="4" width="14" height="14" fill="#FFDD00" rx="7" ry="7" class="highcharts-point" data-z-index="3"></rect></g></g></g></g><text x="590" class="highcharts-credits" text-anchor="end" data-z-index="8" y="595" style="cursor: pointer; color: rgb(153, 153, 153); font-size: 9px; fill: rgb(153, 153, 153);" aria-label="Chart credits: Fuente: ree.es" aria-hidden="false">Fuente: ree.es</text><g class="highcharts-control-points" data-z-index="99" clip-path="url(#highcharts-kmparhn-1083-)" aria-hidden="true"></g></svg>